<svg width="99" height="38" viewBox="0 0 99 38" fill="none" xmlns="http://www.w3.org/2000/svg"><path d="M92 24H55V38H92V24Z" fill="#0D46A8"/><g clip-path="url(#clip0_2141_171)"><path d="M57.8486 28.9414H59.4893V34.3906C59.4893 34.6803 59.4518 34.9408 59.377 35.1719C59.3021 35.4062 59.193 35.6048 59.0498 35.7676C58.9098 35.9336 58.7373 36.0622 58.5322 36.1533C58.3271 36.2445 58.0928 36.2933 57.8291 36.2998L57.7363 35.6211C58.026 35.5788 58.236 35.4404 58.3662 35.2061C58.4997 34.9749 58.5664 34.6689 58.5664 34.2881V29.7812H57.8486V28.9414ZM58.4492 27.1494C58.4492 27.0713 58.4639 26.998 58.4932 26.9297C58.5257 26.8613 58.568 26.8011 58.6201 26.749C58.6722 26.6969 58.7324 26.6562 58.8008 26.627C58.8724 26.5944 58.9489 26.5781 59.0303 26.5781C59.1084 26.5781 59.1816 26.5944 59.25 26.627C59.3216 26.6562 59.3835 26.6969 59.4355 26.749C59.4876 26.8011 59.5283 26.8613 59.5576 26.9297C59.5902 26.998 59.6064 27.0713 59.6064 27.1494C59.6064 27.2308 59.5902 27.3073 59.5576 27.3789C59.5283 27.4505 59.4876 27.514 59.4355 27.5693C59.3835 27.6214 59.3216 27.6637 59.25 27.6963C59.1816 27.7256 59.1084 27.7402 59.0303 27.7402C58.9489 27.7402 58.8724 27.7256 58.8008 27.6963C58.7324 27.6637 58.6722 27.6214 58.6201 27.5693C58.568 27.514 58.5257 27.4505 58.4932 27.3789C58.4639 27.3073 58.4492 27.2308 58.4492 27.1494ZM63.9229 28.9414H65.5537V33.1602H66.1152V34H64.6406V33.5312C64.4128 33.707 64.1637 33.8438 63.8936 33.9414C63.6266 34.0391 63.3402 34.0879 63.0342 34.0879C62.7803 34.0879 62.5492 34.0521 62.3408 33.9805C62.1357 33.9056 61.96 33.7917 61.8135 33.6387C61.6702 33.4824 61.5596 33.2855 61.4814 33.0479C61.4033 32.8102 61.3643 32.527 61.3643 32.1982V29.7812H60.6807V28.9414H62.3115V32.0908C62.3115 32.4782 62.401 32.7712 62.5801 32.9697C62.7591 33.1683 63.0163 33.2676 63.3516 33.2676C63.5501 33.2676 63.7585 33.2318 63.9766 33.1602C64.1979 33.0885 64.4062 32.9893 64.6016 32.8623V29.7812H63.9229V28.9414ZM70.3877 30.2988C70.3877 30.1621 70.3551 30.0465 70.29 29.9521C70.2282 29.8545 70.1468 29.7764 70.0459 29.7178C69.945 29.6559 69.8327 29.612 69.709 29.5859C69.5853 29.5566 69.4648 29.542 69.3477 29.542C69.2174 29.542 69.097 29.5566 68.9863 29.5859C68.8789 29.6152 68.7861 29.6576 68.708 29.7129C68.6299 29.7682 68.568 29.8366 68.5225 29.918C68.4801 29.9961 68.459 30.084 68.459 30.1816C68.459 30.3509 68.5094 30.486 68.6104 30.5869C68.7145 30.6846 68.887 30.7757 69.1279 30.8604L70.0996 31.2021C70.5163 31.3421 70.8206 31.5326 71.0127 31.7734C71.2048 32.0143 71.3008 32.3024 71.3008 32.6377C71.3008 32.8623 71.2552 33.069 71.1641 33.2578C71.0762 33.4434 70.9492 33.6029 70.7832 33.7363C70.6204 33.8665 70.4235 33.9674 70.1924 34.0391C69.9613 34.1139 69.7041 34.1514 69.4209 34.1514C69.027 34.1514 68.7064 34.0879 68.459 33.9609C68.2116 33.834 68.0212 33.6663 67.8877 33.458H67.3799V32.6182H68.3906C68.3906 32.7581 68.4199 32.8786 68.4785 32.9795C68.5404 33.0771 68.6201 33.1569 68.7178 33.2188C68.8187 33.2806 68.931 33.3262 69.0547 33.3555C69.1816 33.3848 69.3102 33.3994 69.4404 33.3994C69.5674 33.3994 69.6895 33.3848 69.8066 33.3555C69.9238 33.3229 70.0264 33.2773 70.1143 33.2188C70.2054 33.1569 70.277 33.0837 70.3291 32.999C70.3812 32.9144 70.4072 32.8184 70.4072 32.7109C70.4072 32.5482 70.3535 32.4098 70.2461 32.2959C70.1419 32.182 69.9629 32.0794 69.709 31.9883L68.7422 31.627C68.3483 31.487 68.0553 31.3096 67.8633 31.0947C67.6745 30.8766 67.5801 30.6048 67.5801 30.2793C67.5801 30.0645 67.6191 29.8659 67.6973 29.6836C67.7786 29.5013 67.8942 29.3451 68.0439 29.2148C68.1969 29.0814 68.3825 28.9772 68.6006 28.9023C68.8187 28.8275 69.0677 28.79 69.3477 28.79C69.709 28.79 70.0117 28.8405 70.2559 28.9414C70.5 29.0423 70.7197 29.2148 70.915 29.459H71.3887V30.2988H70.3877ZM73.7861 28.9414H74.9727V29.6787H73.7764L73.7617 32.5986C73.7617 32.7972 73.7845 32.9583 73.8301 33.082C73.8757 33.2057 73.9489 33.292 74.0498 33.3408C74.1507 33.3864 74.2646 33.4092 74.3916 33.4092C74.5283 33.4092 74.6488 33.3978 74.7529 33.375C74.8571 33.349 74.971 33.3066 75.0947 33.248L75.3047 33.8584C75.1484 33.9398 74.984 34.0033 74.8115 34.0488C74.639 34.0977 74.4355 34.1221 74.2012 34.1221C73.9798 34.1221 73.7861 34.0944 73.6201 34.0391C73.4574 33.987 73.319 33.8975 73.2051 33.7705C73.0944 33.6436 73.0114 33.4743 72.9561 33.2627C72.9007 33.0479 72.873 32.7809 72.873 32.4619L72.8877 29.6787H72.082V28.9414H72.8975V27.7305L73.7861 27.3105V28.9414ZM76.0029 28.9414H77.6533V33.1602H78.415V34H76.0127V33.1602H76.7354V29.7812H76.0029V28.9414ZM76.5645 27.1494C76.5645 27.0648 76.5807 26.985 76.6133 26.9102C76.6491 26.832 76.6947 26.7653 76.75 26.71C76.8086 26.6514 76.877 26.6058 76.9551 26.5732C77.0332 26.5374 77.1162 26.5195 77.2041 26.5195C77.2887 26.5195 77.3685 26.5374 77.4434 26.5732C77.5215 26.6058 77.5882 26.6514 77.6436 26.71C77.7021 26.7653 77.7477 26.832 77.7803 26.9102C77.8161 26.985 77.834 27.0648 77.834 27.1494C77.834 27.2373 77.8161 27.3203 77.7803 27.3984C77.7477 27.4766 77.7021 27.5465 77.6436 27.6084C77.5882 27.667 77.5215 27.7142 77.4434 27.75C77.3685 27.7826 77.2887 27.7988 77.2041 27.7988C77.1162 27.7988 77.0332 27.7826 76.9551 27.75C76.877 27.7142 76.8086 27.667 76.75 27.6084C76.6947 27.5465 76.6491 27.4766 76.6133 27.3984C76.5807 27.3203 76.5645 27.2373 76.5645 27.1494ZM82.9072 30.2891C82.7705 30.0449 82.5964 29.8659 82.3848 29.752C82.1764 29.638 81.9339 29.5811 81.6572 29.5811C81.4456 29.5811 81.2471 29.625 81.0615 29.7129C80.876 29.8008 80.7132 29.9261 80.5732 30.0889C80.4365 30.2516 80.3275 30.4502 80.2461 30.6846C80.168 30.9157 80.1289 31.1745 80.1289 31.4609C80.1289 31.7441 80.168 31.9997 80.2461 32.2275C80.3275 32.4554 80.4382 32.6507 80.5781 32.8135C80.7181 32.973 80.8792 33.0967 81.0615 33.1846C81.2471 33.2692 81.4456 33.3115 81.6572 33.3115C81.9697 33.3115 82.2415 33.2367 82.4727 33.0869C82.7038 32.9339 82.8877 32.7109 83.0244 32.418L83.7764 32.7891C83.6787 32.9974 83.5583 33.1846 83.415 33.3506C83.2718 33.5166 83.109 33.6582 82.9268 33.7754C82.7477 33.8926 82.5492 33.9821 82.3311 34.0439C82.1162 34.109 81.8883 34.1416 81.6475 34.1416C81.2959 34.1416 80.9704 34.0765 80.6709 33.9463C80.3747 33.8128 80.1175 33.6273 79.8994 33.3896C79.6846 33.152 79.5169 32.8688 79.3965 32.54C79.276 32.2113 79.2158 31.8516 79.2158 31.4609C79.2158 31.0703 79.2793 30.7106 79.4062 30.3818C79.5332 30.0531 79.7074 29.7715 79.9287 29.5371C80.1501 29.2995 80.4089 29.1139 80.7051 28.9805C81.0013 28.847 81.3187 28.7803 81.6572 28.7803C81.9762 28.7803 82.2773 28.8356 82.5605 28.9463C82.847 29.057 83.0977 29.2246 83.3125 29.4492H83.8252V30.2891H82.9072ZM85.5732 31.5879C85.5732 31.7311 85.583 31.863 85.6025 31.9834C85.6253 32.1006 85.6562 32.2129 85.6953 32.3203C85.8158 32.6458 86.0078 32.8916 86.2715 33.0576C86.5384 33.2204 86.8395 33.3018 87.1748 33.3018C87.4385 33.3018 87.694 33.266 87.9414 33.1943C88.1921 33.1195 88.4541 33.0039 88.7275 32.8477L89.0938 33.4678C88.7617 33.6956 88.4281 33.8649 88.0928 33.9756C87.7575 34.0863 87.4092 34.1416 87.0479 34.1416C86.7061 34.1416 86.3887 34.0846 86.0957 33.9707C85.806 33.8568 85.5553 33.6875 85.3438 33.4629C85.1354 33.2383 84.971 32.9583 84.8506 32.623C84.7334 32.2878 84.6748 31.8971 84.6748 31.4512C84.6748 31.0898 84.7253 30.7497 84.8262 30.4307C84.9271 30.1084 85.0768 29.8285 85.2754 29.5908C85.4772 29.3499 85.7262 29.1595 86.0225 29.0195C86.3187 28.8796 86.6637 28.8096 87.0576 28.8096C87.4385 28.8096 87.7559 28.8682 88.0098 28.9854C88.2669 29.0993 88.4753 29.2523 88.6348 29.4443C88.7975 29.6331 88.9196 29.8496 89.001 30.0938C89.0856 30.3379 89.1442 30.5869 89.1768 30.8408C89.193 30.9645 89.2028 31.0898 89.2061 31.2168C89.2126 31.3438 89.2158 31.4674 89.2158 31.5879H85.5732ZM86.9941 29.5713C86.7826 29.5713 86.597 29.6022 86.4375 29.6641C86.2812 29.7227 86.1478 29.8089 86.0371 29.9229C85.9264 30.0335 85.8369 30.1702 85.7686 30.333C85.7035 30.4958 85.6546 30.6781 85.6221 30.8799H88.2441C88.2311 30.6911 88.2002 30.5169 88.1514 30.3574C88.1058 30.1979 88.0342 30.0596 87.9365 29.9424C87.8389 29.8252 87.7135 29.734 87.5605 29.6689C87.4076 29.6038 87.2188 29.5713 86.9941 29.5713Z" fill="white"/></g><path d="M1.67578 3.23438H8.85938C9.65625 3.23438 10.3867 3.33984 11.0508 3.55078C11.7227 3.75391 12.3008 4.05858 12.7852 4.46483C13.2773 4.86327 13.6562 5.36327 13.9219 5.96483C14.1953 6.5664 14.332 7.2578 14.332 8.03905C14.332 8.68749 14.1992 9.30078 13.9336 9.87891C13.668 10.4492 13.293 10.9492 12.8086 11.3789C12.3242 11.8086 11.7422 12.1484 11.0625 12.3984C10.3906 12.6484 9.64062 12.7734 8.8125 12.7734H5.66016V18.9844H7.44141V21H1.67578V18.9844H3.36328V5.26172H1.67578V3.23438ZM5.66016 5.26172V10.8516H8.85938C9.30469 10.8516 9.71094 10.793 10.0781 10.6758C10.4531 10.5508 10.7734 10.3711 11.0391 10.1367C11.3125 9.90233 11.5234 9.60937 11.6719 9.2578C11.8281 8.90624 11.9062 8.49999 11.9062 8.03905C11.9062 7.16405 11.6406 6.48436 11.1094 5.99999C10.5781 5.5078 9.73047 5.26172 8.56641 5.26172H5.66016ZM22.3242 19.875C21.8633 20.3047 21.3516 20.6562 20.7891 20.9297C20.2344 21.2031 19.6016 21.3398 18.8906 21.3398C18.2969 21.3398 17.75 21.2461 17.25 21.0586C16.7578 20.8711 16.332 20.6172 15.9727 20.2969C15.6133 19.9688 15.332 19.5898 15.1289 19.1602C14.9336 18.7305 14.8359 18.2734 14.8359 17.7891C14.8359 17.2734 14.9102 16.8164 15.0586 16.418C15.2148 16.0195 15.418 15.6758 15.668 15.3867C15.9258 15.0898 16.2227 14.8438 16.5586 14.6484C16.9023 14.4453 17.2578 14.2852 17.625 14.168C18 14.043 18.3789 13.957 18.7617 13.9102C19.1523 13.8555 19.5234 13.8281 19.875 13.8281C20.4375 13.8281 20.9102 13.8477 21.293 13.8867C21.6758 13.918 22.0234 13.9648 22.3359 14.0273L22.3477 13.0312C22.3477 12.6016 22.2852 12.2305 22.1602 11.918C22.0352 11.5977 21.8594 11.3359 21.6328 11.1328C21.4062 10.9219 21.1328 10.7656 20.8125 10.6641C20.5 10.5625 20.1484 10.5117 19.7578 10.5117C19.3906 10.5117 19.0391 10.5391 18.7031 10.5938C18.3672 10.6406 18.0508 10.707 17.7539 10.793C17.4648 10.8711 17.1953 10.9648 16.9453 11.0742C16.7031 11.1758 16.4961 11.2852 16.3242 11.4023L15.6094 9.89062C15.8984 9.70312 16.2148 9.53125 16.5586 9.375C16.9023 9.21094 17.2617 9.07422 17.6367 8.96484C18.0195 8.84766 18.4062 8.7578 18.7969 8.6953C19.1953 8.62499 19.5859 8.58984 19.9688 8.58984C20.6719 8.58984 21.3047 8.67578 21.8672 8.84766C22.4297 9.01172 22.9062 9.26953 23.2969 9.62109C23.6875 9.97266 23.9883 10.4219 24.1992 10.9688C24.4102 11.5078 24.5156 12.1562 24.5156 12.9141L24.5039 18.9844H25.8516V21H22.3242V19.875ZM19.3711 19.5117C19.6602 19.5117 19.9492 19.4766 20.2383 19.4062C20.5273 19.3359 20.8008 19.2422 21.0586 19.125C21.3164 19 21.5547 18.8594 21.7734 18.7031C21.9922 18.5391 22.1758 18.3711 22.3242 18.1992L22.3359 15.457H19.8047C19.3828 15.457 18.9961 15.5039 18.6445 15.5977C18.3008 15.6914 18 15.8281 17.7422 16.0078C17.4922 16.1875 17.2969 16.4102 17.1562 16.6758C17.0156 16.9414 16.9453 17.2461 16.9453 17.5898C16.9453 17.9102 17.0039 18.1914 17.1211 18.4336C17.2383 18.668 17.4023 18.8672 17.6133 19.0312C17.832 19.1875 18.0898 19.3086 18.3867 19.3945C18.6836 19.4727 19.0117 19.5117 19.3711 19.5117ZM27.832 8.85938H31.6992V9.86719C32.2148 9.46875 32.7773 9.15233 33.3867 8.91796C33.9961 8.68358 34.625 8.56641 35.2734 8.56641C36.0703 8.56641 36.8008 8.71483 37.4648 9.01171C38.1289 9.30858 38.6992 9.72656 39.1758 10.2656C39.6602 10.8047 40.0352 11.4531 40.3008 12.2109C40.5664 12.9609 40.6992 13.793 40.6992 14.707C40.6992 15.6836 40.5508 16.5742 40.2539 17.3789C39.957 18.1836 39.543 18.875 39.0117 19.4531C38.4883 20.0234 37.8633 20.4688 37.1367 20.7891C36.4102 21.1094 35.6133 21.2695 34.7461 21.2695C34.1289 21.2695 33.5781 21.2031 33.0938 21.0703C32.6172 20.9453 32.1602 20.7812 31.7227 20.5781V24.5039H33.6211V26.5195H27.8555V24.5039H29.5195V10.875H27.832V8.85938ZM34.6992 10.4883C34.1367 10.4883 33.5938 10.6016 33.0703 10.8281C32.5547 11.0547 32.1055 11.3672 31.7227 11.7656V18.3398C31.9805 18.6055 32.3477 18.8438 32.8242 19.0547C33.3086 19.2656 33.9102 19.3711 34.6289 19.3711C35.1289 19.3711 35.6094 19.2734 36.0703 19.0781C36.5312 18.8828 36.9375 18.5938 37.2891 18.2109C37.6406 17.8203 37.9219 17.3398 38.1328 16.7695C38.3438 16.1992 38.4492 15.5391 38.4492 14.7891C38.4492 14.1016 38.3477 13.4922 38.1445 12.9609C37.9492 12.4297 37.6797 11.9805 37.3359 11.6133C37 11.2461 36.6055 10.9688 36.1523 10.7812C35.6992 10.5859 35.2148 10.4883 34.6992 10.4883ZM42.4805 8.85938H46.3477V9.86719C46.8633 9.46875 47.4258 9.15233 48.0352 8.91796C48.6445 8.68358 49.2734 8.56641 49.9219 8.56641C50.7188 8.56641 51.4492 8.71483 52.1133 9.01171C52.7773 9.30858 53.3477 9.72656 53.8242 10.2656C54.3086 10.8047 54.6836 11.4531 54.9492 12.2109C55.2148 12.9609 55.3477 13.793 55.3477 14.707C55.3477 15.6836 55.1992 16.5742 54.9023 17.3789C54.6055 18.1836 54.1914 18.875 53.6602 19.4531C53.1367 20.0234 52.5117 20.4688 51.7852 20.7891C51.0586 21.1094 50.2617 21.2695 49.3945 21.2695C48.7773 21.2695 48.2266 21.2031 47.7422 21.0703C47.2656 20.9453 46.8086 20.7812 46.3711 20.5781V24.5039H48.2695V26.5195H42.5039V24.5039H44.168V10.875H42.4805V8.85938ZM49.3477 10.4883C48.7852 10.4883 48.2422 10.6016 47.7188 10.8281C47.2031 11.0547 46.7539 11.3672 46.3711 11.7656V18.3398C46.6289 18.6055 46.9961 18.8438 47.4727 19.0547C47.957 19.2656 48.5586 19.3711 49.2773 19.3711C49.7773 19.3711 50.2578 19.2734 50.7188 19.0781C51.1797 18.8828 51.5859 18.5938 51.9375 18.2109C52.2891 17.8203 52.5703 17.3398 52.7812 16.7695C52.9922 16.1992 53.0977 15.5391 53.0977 14.7891C53.0977 14.1016 52.9961 13.4922 52.793 12.9609C52.5977 12.4297 52.3281 11.9805 51.9844 11.6133C51.6484 11.2461 51.2539 10.9688 50.8008 10.7812C50.3477 10.5859 49.8633 10.4883 49.3477 10.4883ZM59.6719 15.2109C59.6719 15.5547 59.6953 15.8711 59.7422 16.1602C59.7969 16.4414 59.8711 16.7109 59.9648 16.9688C60.2539 17.75 60.7148 18.3398 61.3477 18.7383C61.9883 19.1289 62.7109 19.3242 63.5156 19.3242C64.1484 19.3242 64.7617 19.2383 65.3555 19.0664C65.957 18.8867 66.5859 18.6094 67.2422 18.2344L68.1211 19.7227C67.3242 20.2695 66.5234 20.6758 65.7188 20.9414C64.9141 21.207 64.0781 21.3398 63.2109 21.3398C62.3906 21.3398 61.6289 21.2031 60.9258 20.9297C60.2305 20.6562 59.6289 20.25 59.1211 19.7109C58.6211 19.1719 58.2266 18.5 57.9375 17.6953C57.6562 16.8906 57.5156 15.9531 57.5156 14.8828C57.5156 14.0156 57.6367 13.1992 57.8789 12.4336C58.1211 11.6602 58.4805 10.9883 58.957 10.418C59.4414 9.83984 60.0391 9.3828 60.75 9.04688C61.4609 8.71093 62.2891 8.54296 63.2344 8.54296C64.1484 8.54296 64.9102 8.68359 65.5195 8.96484C66.1367 9.23828 66.6367 9.60546 67.0195 10.0664C67.4102 10.5195 67.7031 11.0391 67.8984 11.625C68.1016 12.2109 68.2422 12.8086 68.3203 13.418C68.3594 13.7148 68.3828 14.0156 68.3906 14.3203C68.4062 14.625 68.4141 14.9219 68.4141 15.2109H59.6719ZM63.082 10.3711C62.5742 10.3711 62.1289 10.4453 61.7461 10.5938C61.3711 10.7344 61.0508 10.9414 60.7852 11.2148C60.5195 11.4805 60.3047 11.8086 60.1406 12.1992C59.9844 12.5898 59.8672 13.0273 59.7891 13.5117H66.082C66.0508 13.0586 65.9766 12.6406 65.8594 12.2578C65.75 11.875 65.5781 11.543 65.3438 11.2617C65.1094 10.9805 64.8086 10.7617 64.4414 10.6055C64.0742 10.4492 63.6211 10.3711 63.082 10.3711ZM80.1211 11.4258H77.8945V10.6758C77.6367 10.6758 77.3711 10.7266 77.0977 10.8281C76.832 10.9219 76.582 11.0703 76.3477 11.2734C76.1133 11.4688 75.9062 11.7227 75.7266 12.0352C75.5547 12.3398 75.4297 12.7031 75.3516 13.125V18.9844H77.4141V21H71.3906V18.9844H73.0664L73.0781 10.875H71.3906V8.85938H75.2695V10.5352C75.4102 10.2852 75.5664 10.0547 75.7383 9.84375C75.918 9.625 76.1133 9.4375 76.3242 9.28125C76.543 9.11719 76.7812 8.99219 77.0391 8.90625C77.3047 8.8125 77.5898 8.76562 77.8945 8.76562C78.3008 8.76562 78.6836 8.76562 79.043 8.76562C79.4023 8.76562 79.7617 8.77343 80.1211 8.78905V11.4258ZM89.6484 12.1172C89.6484 11.7891 89.5703 11.5117 89.4141 11.2852C89.2656 11.0508 89.0703 10.8633 88.8281 10.7227C88.5859 10.5742 88.3164 10.4688 88.0195 10.4062C87.7227 10.3359 87.4336 10.3008 87.1523 10.3008C86.8398 10.3008 86.5508 10.3359 86.2852 10.4062C86.0273 10.4766 85.8047 10.5781 85.6172 10.7109C85.4297 10.8438 85.2812 11.0078 85.1719 11.2031C85.0703 11.3906 85.0195 11.6016 85.0195 11.8359C85.0195 12.2422 85.1406 12.5664 85.3828 12.8086C85.6328 13.043 86.0469 13.2617 86.625 13.4648L88.957 14.2852C89.957 14.6211 90.6875 15.0781 91.1484 15.6562C91.6094 16.2344 91.8398 16.9258 91.8398 17.7305C91.8398 18.2695 91.7305 18.7656 91.5117 19.2188C91.3008 19.6641 90.9961 20.0469 90.5977 20.3672C90.207 20.6797 89.7344 20.9219 89.1797 21.0938C88.625 21.2734 88.0078 21.3633 87.3281 21.3633C86.3828 21.3633 85.6133 21.2109 85.0195 20.9062C84.4258 20.6016 83.9688 20.1992 83.6484 19.6992H82.4297V17.6836H84.8555C84.8555 18.0195 84.9258 18.3086 85.0664 18.5508C85.2148 18.7852 85.4062 18.9766 85.6406 19.125C85.8828 19.2734 86.1523 19.3828 86.4492 19.4531C86.7539 19.5234 87.0625 19.5586 87.375 19.5586C87.6797 19.5586 87.9727 19.5234 88.2539 19.4531C88.5352 19.375 88.7812 19.2656 88.9922 19.125C89.2109 18.9766 89.3828 18.8008 89.5078 18.5977C89.6328 18.3945 89.6953 18.1641 89.6953 17.9062C89.6953 17.5156 89.5664 17.1836 89.3086 16.9102C89.0586 16.6367 88.6289 16.3906 88.0195 16.1719L85.6992 15.3047C84.7539 14.9688 84.0508 14.543 83.5898 14.0273C83.1367 13.5039 82.9102 12.8516 82.9102 12.0703C82.9102 11.5547 83.0039 11.0781 83.1914 10.6406C83.3867 10.2031 83.6641 9.82812 84.0234 9.51562C84.3906 9.19531 84.8359 8.94531 85.3594 8.76562C85.8828 8.58594 86.4805 8.49609 87.1523 8.49609C88.0195 8.49609 88.7461 8.61718 89.332 8.85938C89.918 9.10156 90.4453 9.51561 90.9141 10.1016H92.0508V12.1172H89.6484Z" fill="#0D46A8"/><defs><clipPath id="clip0_2141_171"><rect width="31" height="9" fill="white" transform="translate(58 27)"/></clipPath></defs></svg>